<svg width="432" height="262" fill="none" xmlns="http://www.w3.org/2000/svg"><path opacity=".1" fill-rule="evenodd" clip-rule="evenodd" d="M315.111 58.046V29.022h-29.078V0H256.95v29.022h-29.085v29.024h29.085v29.029h29.083v-29.03h29.078zM33.289 134.884h16.645v-16.616H33.29V101.65H16.644v16.618H0v16.616h16.644v16.605H33.29v-16.605zM432 0h-43.779v43.643h-43.717V87.35h43.717v43.649H432V0zm-43.779 130.999h-43.717v43.707h-43.781v-43.707H256.95v-43.65h-43.731V131h-43.772v43.707H140.36v-29.028h-29.084v29.028H82.192v29.024h29.084v29.024h29.084V203.73h29.087v-29.024h43.772v43.652h43.731v-43.652h43.773v43.652h43.781V262h43.717v-43.642H432v-43.652h-43.779v-43.707zm-276.945-7.474v-22.871h22.914V77.792h-22.914V54.928H88.362v22.864H65.453v22.862h22.909v22.871h22.914z" fill="#fff"/></svg>