<svg width="37" height="37" fill="none" xmlns="http://www.w3.org/2000/svg"><path d="M10.058 32.452A16.861 16.861 0 0019.004 35C28.379 35 36 27.374 36 18c0-9.374-7.621-17-16.996-17h-.008C9.621 1 2 8.624 2 18a16.88 16.88 0 002.937 9.54l-1.833 5.464-.628 1.872 1.88-.601 5.702-1.823z" fill="#4CAF50" stroke="#fff" stroke-width="2"/><path d="M28.314 24.594c-.386 1.09-1.918 1.994-3.14 2.258-.836.178-1.928.32-5.604-1.204-4.702-1.948-7.73-6.726-7.966-7.036-.226-.31-1.9-2.53-1.9-4.826s1.166-3.414 1.636-3.894c.386-.394 1.024-.574 1.636-.574.198 0 .376.01.536.018.47.02.706.048 1.016.79.386.93 1.326 3.226 1.438 3.462.114.236.228.556.068.866-.15.32-.282.462-.518.734-.236.272-.46.48-.696.772-.216.254-.46.526-.188.996.272.46 1.212 1.994 2.596 3.226 1.786 1.59 3.234 2.098 3.752 2.314.386.16.846.122 1.128-.178.358-.386.8-1.026 1.25-1.656.32-.452.724-.508 1.148-.348.432.15 2.718 1.28 3.188 1.514.47.236.78.348.894.546.112.198.112 1.128-.274 2.22z" fill="#FAFAFA"/></svg>