<svg width="25" height="9" fill="none" xmlns="http://www.w3.org/2000/svg"><path fill="#fff" d="M-515-2205h1920v4062H-515z"/><path fill="#F2F7FA" d="M-515-525h1920v787H-515z"/><g filter="url(#filter0_d)"><rect x="-195" y="-452" width="1262" height="637" rx="6" fill="#fff"/></g><path d="M-36.5 14A5.5 5.5 0 01-31 8.5H1.215a6.5 6.5 0 004.66-1.969l4.116-4.233a3.5 3.5 0 015.018 0l4.116 4.233a6.5 6.5 0 004.66 1.969H56a5.5 5.5 0 015.5 5.5v31a5.5 5.5 0 01-5.5 5.5h-87a5.5 5.5 0 01-5.5-5.5V14z" fill="#fff" stroke="#ABB7C1"/><defs><filter id="filter0_d" x="-215" y="-468" width="1302" height="677" filterUnits="userSpaceOnUse" color-interpolation-filters="sRGB"><feFlood flood-opacity="0" result="BackgroundImageFix"/><feColorMatrix in="SourceAlpha" values="0 0 0 0 0 0 0 0 0 0 0 0 0 0 0 0 0 0 127 0" result="hardAlpha"/><feOffset dy="4"/><feGaussianBlur stdDeviation="10"/><feColorMatrix values="0 0 0 0 0 0 0 0 0 0 0 0 0 0 0 0 0 0 0.05 0"/><feBlend in2="BackgroundImageFix" result="effect1_dropShadow"/><feBlend in="SourceGraphic" in2="effect1_dropShadow" result="shape"/></filter></defs></svg>