<svg width="25" height="24" fill="none" xmlns="http://www.w3.org/2000/svg"><path d="M22.66 2.37a7.921 7.921 0 00-11.303 0l-9.688 9.827c-2.225 2.258-2.225 5.93 0 8.188a5.648 5.648 0 004.037 1.693 5.65 5.65 0 004.036-1.693l8.88-9.007a3.477 3.477 0 001.004-2.457c0-.928-.356-1.8-1.003-2.456a3.395 3.395 0 00-4.844 0l-5.807 5.89a1.17 1.17 0 000 1.638 1.13 1.13 0 001.614 0l5.807-5.89a1.132 1.132 0 011.615 0c.216.218.335.509.335.818 0 .31-.12.6-.335.819l-8.88 9.007a3.395 3.395 0 01-4.844 0 3.514 3.514 0 010-4.913l9.688-9.826a5.658 5.658 0 018.072 0 5.794 5.794 0 011.673 4.094c0 1.547-.594 3-1.672 4.095l-9.688 9.826a1.17 1.17 0 000 1.638 1.13 1.13 0 001.615 0l9.687-9.827A8.111 8.111 0 0025 8.102c0-2.165-.831-4.2-2.34-5.732z" fill="#fff"/></svg>