<svg width="37" height="43" fill="none" xmlns="http://www.w3.org/2000/svg"><g filter="url(#filter0_d)"><path d="M18.5 34.5C10.492 34.5 4 23.008 4 15S10.492.5 18.5.5 33 6.992 33 15s-6.492 19.5-14.5 19.5z" fill="#FF9200"/><path d="M18.5 33.5c-3.514 0-6.876-2.544-9.425-6.308C6.544 23.455 5 18.772 5 15 5 7.544 11.044 1.5 18.5 1.5S32 7.544 32 15c0 3.772-1.544 8.455-4.075 12.192-2.549 3.764-5.911 6.308-9.425 6.308z" stroke="#fff" stroke-width="2"/></g><defs><filter id="filter0_d" x="0" y=".5" width="37" height="42" filterUnits="userSpaceOnUse" color-interpolation-filters="sRGB"><feFlood flood-opacity="0" result="BackgroundImageFix"/><feColorMatrix in="SourceAlpha" values="0 0 0 0 0 0 0 0 0 0 0 0 0 0 0 0 0 0 127 0" result="hardAlpha"/><feOffset dy="4"/><feGaussianBlur stdDeviation="2"/><feComposite in2="hardAlpha" operator="out"/><feColorMatrix values="0 0 0 0 0 0 0 0 0 0 0 0 0 0 0 0 0 0 0.25 0"/><feBlend in2="BackgroundImageFix" result="effect1_dropShadow"/><feBlend in="SourceGraphic" in2="effect1_dropShadow" result="shape"/></filter></defs></svg>