<svg width="461" height="289" fill="none" xmlns="http://www.w3.org/2000/svg"><path fill-rule="evenodd" clip-rule="evenodd" d="M113.794 224.972v32.015h32.04V289h32.046v-32.013h32.046v-32.015H177.88v-32.02h-32.046v32.02h-32.04zm310.527-84.756H405.98v18.328h18.341v18.33h18.339v-18.33H461v-18.328h-18.34v-18.317h-18.339v18.317zM-15 289h48.238v-48.141h48.17v-48.21h-48.17v-48.148H-15V289zm48.238-144.499h48.17v-48.21h48.239v48.21h48.233v48.148h48.184v-48.148h48.231v-48.21h32.049v32.019h32.046V96.29h32.047V64.275H338.39V32.26h-32.046v32.015h-32.049V96.29h-48.231V48.14H177.88v48.15h-48.233V48.14H81.408V0h-48.17v48.14H-15v48.15h48.238v48.211zm305.152 8.245v25.227h-25.247v25.218h25.247v25.22h25.248v-25.22h25.242v-25.218h-25.242v-25.227H338.39z" fill="#F2F7FA"/></svg>