<svg width="61" height="54" fill="none" xmlns="http://www.w3.org/2000/svg"><path d="M54.548 0H6.452C2.894 0 0 2.835 0 6.32v29.87c0 3.485 2.894 6.32 6.452 6.32H22.03l-1.877 9.191h-6.077c-.648 0-1.173.515-1.173 1.15a1.16 1.16 0 001.173 1.148h32.846a1.16 1.16 0 001.173-1.149c0-.634-.525-1.149-1.173-1.149h-6.077l-1.877-9.191h15.58c3.557 0 6.451-2.835 6.451-6.32V6.32C61 2.835 58.106 0 54.548 0zM22.546 51.702l1.877-9.191h12.154l1.877 9.191H22.546zm36.108-15.51c0 2.217-1.842 4.02-4.106 4.02H6.452c-2.264 0-4.106-1.803-4.106-4.02v-2.873h56.308v2.872zm0-5.17H2.346v-2.298h7.039c.648 0 1.173-.515 1.173-1.15a1.16 1.16 0 00-1.173-1.148H2.346V6.319c0-2.217 1.842-4.021 4.106-4.021h48.096c2.264 0 4.106 1.804 4.106 4.021v24.702z" fill="#fff"/><path d="M30.5 34.468c-1.294 0-2.346 1.031-2.346 2.298 0 1.267 1.052 2.298 2.346 2.298s2.346-1.031 2.346-2.298c0-1.267-1.052-2.298-2.346-2.298zm9.604-12.464l-2.488-2.437 2.073-2.031c.302-.296.416-.728.298-1.13a1.163 1.163 0 00-.863-.802L28.34 13.166a1.19 1.19 0 00-1.093.308c-.286.28-.405.684-.314 1.07l2.489 10.562c.096.407.41.73.82.846.41.115.851.003 1.153-.292l2.073-2.031 2.489 2.437c.229.225.53.337.83.337.3 0 .6-.112.829-.337l2.488-2.437a1.133 1.133 0 000-1.625zm-3.318 1.625l-2.488-2.437a1.182 1.182 0 00-.83-.337c-.3 0-.6.112-.83.337l-1.406 1.377-1.59-6.75 6.892 1.558-1.407 1.377a1.132 1.132 0 000 1.625l2.489 2.438-.83.812zM25.671 10.306l-1.173-1.15a1.19 1.19 0 00-1.659 0 1.132 1.132 0 000 1.625l1.173 1.15c.23.224.53.336.83.336.3 0 .6-.112.83-.337a1.133 1.133 0 000-1.624zm-2.287 3.11h-1.659a1.16 1.16 0 00-1.173 1.149c0 .634.525 1.149 1.173 1.149h1.66c.647 0 1.172-.515 1.172-1.15a1.16 1.16 0 00-1.173-1.148zm2.287 3.784a1.19 1.19 0 00-1.659 0l-1.173 1.148a1.132 1.132 0 000 1.625 1.187 1.187 0 001.66 0l1.172-1.149a1.133 1.133 0 000-1.625zm8.212-8.043a1.19 1.19 0 00-1.659 0l-1.173 1.149a1.132 1.132 0 000 1.624c.229.225.53.337.83.337.3 0 .6-.112.829-.337l1.173-1.149a1.132 1.132 0 000-1.624zm-5.522-2.24a1.16 1.16 0 00-1.173 1.148V9.69c0 .635.525 1.15 1.173 1.15s1.173-.515 1.173-1.15V8.065a1.16 1.16 0 00-1.173-1.148zM14.053 27.35a1.1 1.1 0 00-.174-.413 1.103 1.103 0 00-.324-.317 1.166 1.166 0 00-.422-.172 1.178 1.178 0 00-.88.172 1.116 1.116 0 00-.324.317 1.16 1.16 0 00-.198.637 1.107 1.107 0 00.09.44 1.118 1.118 0 00.254.373 1.128 1.128 0 00.38.248 1.207 1.207 0 00.449.088 1.172 1.172 0 00.65-.194 1.12 1.12 0 00.433-.516 1.114 1.114 0 00.067-.663z" fill="#fff"/></svg>