<svg width="63" height="64" fill="none" xmlns="http://www.w3.org/2000/svg"><path d="M42.563 35.778l-8.436-5.247a.924.924 0 00-.34-.127l-2.642-.471a.92.92 0 00-1.055.747.93.93 0 00.739 1.068l2.492.445 8.29 5.156a.92.92 0 001.228-.266.941.941 0 00-.276-1.305z" fill="#fff"/><path d="M61.788 36.074a.903.903 0 00-1.287-.044l-3.69 3.491-16.912-16.89L61.745 1.907a.93.93 0 00.042-1.303A.903.903 0 0060.5.562l-22.537 21.38a.939.939 0 00-.017 1.328l1.496 1.494-.477.426-9.999-.871a.902.902 0 00-.455.08l-7.922 3.651a.926.926 0 00-.07-.016l-4.557-.814.368-.953a.925.925 0 00-.51-1.191L1.254 19.178a.906.906 0 00-1.183.513.925.925 0 00.507 1.198l13.727 5.558-8.09 20.926-4.995-1.791a.908.908 0 00-1.162.56.925.925 0 00.554 1.177l5.827 2.089a.915.915 0 001.151-.533l1.352-3.497 3.543 2.01-.391.64c-1.107 1.816-.548 4.206 1.246 5.326a3.806 3.806 0 003.187.386 3.89 3.89 0 001.772 2.711 3.806 3.806 0 003.187.386 3.891 3.891 0 001.771 2.711 3.8 3.8 0 003.187.387 3.891 3.891 0 001.771 2.71 3.823 3.823 0 004.462-.323c.315-.267.585-.585.8-.939l.622-1.018.51.318a3.823 3.823 0 004.462-.332 3.885 3.885 0 001.355-3.198c.29.07.585.108.884.108a3.844 3.844 0 003.264-1.845c.417-.687.608-1.47.56-2.258.288.07.583.108.88.108a3.844 3.844 0 003.265-1.846c.418-.687.608-1.47.56-2.26.29.07.587.108.882.108a3.815 3.815 0 003.264-1.844c1.103-1.818.54-4.206-1.256-5.323l-.624-.388 2.092-2.213 1.957 1.955a.911.911 0 001.261.017l4.33-4.096a.93.93 0 00.043-1.302zm-44.736 15.05a1.992 1.992 0 01-2.756.662 2.044 2.044 0 01-.653-2.79l5.1-8.365a1.999 1.999 0 012.722-.682c.965.578 1.231 1.917.652 2.867l-5.065 8.309zm4.959 3.098a1.991 1.991 0 01-2.756.66c-.929-.58-1.227-1.848-.653-2.79l4.079-6.691a1.999 1.999 0 012.723-.682c.965.578 1.231 1.917.652 2.867l-4.045 6.636zm4.959 3.097a1.993 1.993 0 01-2.757.66c-.928-.58-1.226-1.848-.652-2.79l3.059-5.019a1.999 1.999 0 012.723-.68c.965.576 1.23 1.916.652 2.866l-3.025 4.963zm6.963-.193l-2.005 3.29a2.006 2.006 0 01-2.756.66c-.929-.58-1.227-1.848-.653-2.79l2.04-3.346a1.998 1.998 0 012.722-.68c.965.577 1.232 1.916.652 2.866zm16.584-16.4l-4.512-2.807a.919.919 0 00-1.252.302.944.944 0 00.299 1.268l6.723 4.182a2.044 2.044 0 01.658 2.788 1.991 1.991 0 01-2.755.666l-7.21-4.485a.904.904 0 00-1.253.303.928.928 0 00.299 1.267l5.556 3.456c.93.578 1.23 1.847.658 2.789-.571.94-1.824 1.245-2.755.666l-5.035-3.132a.904.904 0 00-1.252.303.928.928 0 00.299 1.267l3.38 2.103c.93.578 1.23 1.846.658 2.788a2.007 2.007 0 01-2.755.666s-2.973-1.847-3-1.86a.904.904 0 00-1.171.347.928.928 0 00.299 1.268l1.265.786a2.044 2.044 0 01.657 2.789c-.57.94-1.824 1.245-2.755.666l-.508-.316.428-.703a4.03 4.03 0 00.466-3.033 3.801 3.801 0 00-1.74-2.388 3.752 3.752 0 00-2.19-.522c.14-.607.14-1.247-.009-1.86a3.801 3.801 0 00-1.74-2.388 3.751 3.751 0 00-2.189-.523c.375-1.632-.316-3.389-1.75-4.247a3.753 3.753 0 00-2.189-.523c.376-1.632-.315-3.389-1.75-4.247-1.78-1.065-4.112-.482-5.198 1.3l-3.752 6.155-3.83-2.172 5.673-14.674 3.088.552a3.913 3.913 0 00-.506 4.035 3.826 3.826 0 003.485 2.266 3.77 3.77 0 001.58-.348l5.33-2.458a.935.935 0 00.452-1.22.914.914 0 00-1.206-.457l-5.331 2.458a1.995 1.995 0 01-2.653-1.005 2.04 2.04 0 01.992-2.685l8.532-3.933 10.148.884a.905.905 0 00.68-.227l.865-.772L52.9 38.205l-2.384 2.52z" fill="#fff"/></svg>