<svg width="68" height="67" fill="none" xmlns="http://www.w3.org/2000/svg"><path d="M64.438 30.12a30.357 30.357 0 00-4.147-14.701C62.414 5.266 51.675-2.99 42.427 1.627 33.707-.972 23.571.41 15.575 6.597c-1.014.778.211 2.29 1.183 1.544a28.375 28.375 0 018.086-4.337A28.34 28.34 0 0134.29 2.28a28.49 28.49 0 015.99.69 12.682 12.682 0 00-2.068 2.021C23.082 2.408 8.681 14.104 7.99 29.3c-.797-.04-1.62.016-2.39.227.268-6.445 2.726-12.691 6.84-17.299.837-.937-.614-2.232-1.452-1.294-4.622 5.176-7.294 12.271-7.357 19.51A6.467 6.467 0 00.83 35.769v9.395c0 4.152 3.537 6.566 7.369 6.469 1.355 3.916 7.072 3.066 7.169-1.137V30.103c.043-2.597-2.783-4.443-5.138-3.37 1.979-12.415 13.956-21.626 26.766-19.95-2.75 4.692-1.827 11.284 2.155 15.066v2.64c.13.782.58 1.08 1.351.896l2.368-1c4.465 2.091 10.283 1.023 13.694-2.32a23.854 23.854 0 011.283 4.678c-2.358-1.09-5.203.75-5.16 3.36v20.393c-.027 2.765 3.059 4.577 5.452 3.215-.005.859-.02 1.718-.054 2.568-.232 2.786-2.38 5.124-5.12 5.576-.871.086-1.864.119-3.078.102a3.772 3.772 0 00-3.634-2.776H41.09c-4.994.206-4.995 7.321 0 7.528h5.164a3.772 3.772 0 003.642-2.808c1.097.015 2.26.053 3.349-.121 3.634-.582 6.537-3.679 6.832-7.365v-.038c.068-1.692.017-3.4 0-5.078 3.76.182 7.15-2.556 7.15-6.469v-9.395c0-2.2-1.105-4.146-2.788-5.316zM2.775 45.163v-9.395c0-2.834 2.495-4.679 5.175-4.525v18.444c-2.681.15-5.175-1.681-5.175-4.524zm8.918-16.79c.954 0 1.73.776 1.73 1.729v20.393c-.096 2.294-3.365 2.292-3.46 0V30.103c0-.954.777-1.73 1.73-1.73zm34.56 36.39h-5.164a1.822 1.822 0 01-1.82-1.82c0-1.002.816-1.819 1.82-1.819h5.164c2.413.1 2.415 3.539 0 3.64zm16.204-35.57c-.772-.211-1.595-.267-2.393-.228-.2-2.944-.89-5.8-2.056-8.506a12.577 12.577 0 001.463-2.48 28.421 28.421 0 012.986 11.213zM47.974 23.52c-1.633 0-3.2-.36-4.658-1.072a.973.973 0 00-.805-.023l-1.415.598v-1.59a.972.972 0 00-.314-.716C33.7 14.22 38.352 2.275 47.974 2.28c14.096.583 14.092 20.659 0 21.24zM65.28 44.83c0 2.865-2.53 4.688-5.227 4.525a232.29 232.29 0 01-.017-3.135c0-1.257-1.945-1.257-1.945 0v4.276c0 .953-.776 1.729-1.73 1.729a1.731 1.731 0 01-1.729-1.729V30.103c.093-2.288 3.362-2.299 3.46 0v10.941c0 1.257 1.944 1.257 1.944 0V30.911c2.703-.154 5.244 1.634 5.244 4.524v9.395z" fill="#fff"/><path d="M42.876 55.084c.77.185 1.221-.114 1.35-.896v-3.174c9.318-9.056 2.817-25.06-10.199-25.044-8.052 0-14.604 6.549-14.604 14.597C19.3 51.01 30.564 58.281 40.025 53.88l2.85 1.204zm-3.3-3.142c-8.224 4.14-18.32-2.16-18.208-11.375 0-6.976 5.68-12.652 12.66-12.652 11.465-.005 17.005 14.226 8.568 21.965a.972.972 0 00-.314.716v2.126l-1.9-.802a.973.973 0 00-.805.022z" fill="#fff"/><path d="M31.426 36.086h5.203c1.258 0 1.258-1.944 0-1.944h-5.203c-1.257 0-1.257 1.944 0 1.944zm5.203 8.962h-5.203c-1.257 0-1.257 1.945 0 1.945h5.203c1.258 0 1.258-1.945 0-1.945zm2.783-5.453h-10.77c-1.257 0-1.257 1.945 0 1.945h10.77c1.258 0 1.258-1.945 0-1.945zM48.059 5.48c-2.297-.044-4.24 1.855-4.24 4.152 0 1.258 1.946 1.258 1.946 0 0-1.197 1.054-2.234 2.255-2.208 1.151.024 2.1.941 2.16 2.09.065 1.248-.954 2.327-2.206 2.327a.973.973 0 00-.973.972v3.326a.972.972 0 001.945 0v-2.47c1.922-.466 3.279-2.281 3.176-4.256A4.166 4.166 0 0048.06 5.48zm-.085 13.025c-1.252 0-1.254 1.944 0 1.944 1.251 0 1.253-1.944 0-1.944z" fill="#fff"/></svg>