<svg width="62" height="64" fill="none" xmlns="http://www.w3.org/2000/svg"><path d="M38.836 6.7c-.37-.701-1.021-1.196-1.834-1.393L16.331.28c-1.313-.32-1.95.263-2.164.528-.215.266-.648 1.014-.022 2.204l2.96 5.632C11.868 11.805-4.768 23.465 2.012 40.487c.151.38.523.631.94.636h.01c.412 0 .784-.245.941-.619.057-.135 5.742-13.286 20.783-17.433l2.956 5.624c.624 1.189 1.495 1.277 1.842 1.257.346-.018 1.201-.193 1.693-1.432l7.76-19.537a2.724 2.724 0 00-.1-2.283zM37.04 8.258l-7.682 19.338-3.235-6.155a1.025 1.025 0 00-1.157-.51C12.117 24.134 5.581 33.243 3.152 37.51-1.06 22.19 15.46 11.871 18.96 9.883a.987.987 0 00.394-1.321l-3.307-6.294L36.51 7.244c.239.059.417.188.516.373a.762.762 0 01.013.64zm22.927 14.53a1.019 1.019 0 00-.942-.635h-.008a1.02 1.02 0 00-.943.62c-.056.134-5.703 13.277-20.782 17.43l-2.956-5.622c-.625-1.189-1.5-1.272-1.842-1.257-.345.017-1.201.192-1.693 1.43l-7.76 19.538a2.723 2.723 0 00.102 2.285c.37.7 1.02 1.194 1.833 1.391l20.672 5.027c.27.066.51.093.724.093.83 0 1.27-.41 1.439-.621.215-.267.648-1.015.022-2.205l-2.96-5.632c5.237-3.161 21.872-14.822 15.094-31.842zM43.019 53.39a.987.987 0 00-.394 1.321l3.307 6.296-20.465-4.977c-.238-.058-.416-.187-.514-.372a.756.756 0 01-.013-.642l7.68-19.338 3.236 6.155c.217.413.694.626 1.158.51 12.848-3.203 19.383-12.312 21.813-16.578 4.21 15.318-12.307 25.637-15.808 27.625z" fill="#fff"/></svg>