<svg width="63" height="63" fill="none" xmlns="http://www.w3.org/2000/svg"><path d="M61.95 0H1.05C.47 0 0 .47 0 1.05v6.3C0 7.93.47 8.4 1.05 8.4h2.1v44.1h-2.1c-.58 0-1.05.47-1.05 1.05v4.2c0 .58.47 1.05 1.05 1.05h25.2v1.05A3.153 3.153 0 0029.4 63h4.2a3.153 3.153 0 003.15-3.15V58.8h25.2c.58 0 1.05-.47 1.05-1.05v-4.2c0-.58-.47-1.05-1.05-1.05h-2.1V8.4h2.1c.58 0 1.05-.47 1.05-1.05v-6.3C63 .47 62.53 0 61.95 0zm-27.3 59.85c0 .58-.471 1.05-1.05 1.05h-4.2a1.05 1.05 0 01-1.05-1.05V58.8h6.3v1.05zM60.9 56.7H2.1v-2.1h58.8v2.1zm-3.15-4.2H5.25V8.4h52.5v44.1zM60.9 6.3H2.1V2.1h58.8v4.2z" fill="#fff"/><path d="M49.35 38.85c0 .41.084.8.228 1.16l-3.945 3.456a3.11 3.11 0 00-1.533-.416 3.13 3.13 0 00-1.744.53l-3.663-2.747c.093-.297.157-.606.157-.933a3.153 3.153 0 00-3.15-3.15 3.153 3.153 0 00-3.15 3.15c0 .41.084.8.228 1.16l-3.945 3.456A3.11 3.11 0 0027.3 44.1c-1.367 0-2.522.88-2.957 2.1H15.75v2.1h8.593a3.145 3.145 0 002.957 2.1 3.153 3.153 0 003.15-3.15c0-.41-.084-.8-.228-1.16l3.945-3.456a3.11 3.11 0 001.533.416 3.13 3.13 0 001.744-.53l3.663 2.747a3.109 3.109 0 00-.157.933 3.153 3.153 0 003.15 3.15 3.153 3.153 0 003.15-3.15c0-.41-.084-.8-.228-1.16l3.945-3.456A3.11 3.11 0 0052.5 42a3.153 3.153 0 003.15-3.15 3.153 3.153 0 00-3.15-3.15 3.153 3.153 0 00-3.15 3.15zM27.3 48.3a1.051 1.051 0 010-2.1 1.051 1.051 0 010 2.1zm8.4-7.35a1.051 1.051 0 010-2.1 1.051 1.051 0 010 2.1zm8.4 6.3a1.051 1.051 0 010-2.1 1.051 1.051 0 010 2.1zm9.45-8.4a1.051 1.051 0 01-2.1 0 1.051 1.051 0 012.1 0zM18.9 29.4c4.053 0 7.35-3.298 7.35-7.35s-3.297-7.35-7.35-7.35c-4.053 0-7.35 3.298-7.35 7.35s3.297 7.35 7.35 7.35zm1.05-12.494a5.22 5.22 0 011.84.769l-1.84 1.84v-2.609zm-2.1 0v5.144a1.05 1.05 0 001.792.742l3.633-3.633c.55.83.875 1.823.875 2.891a5.256 5.256 0 01-5.25 5.25 5.256 5.256 0 01-5.25-5.25 5.259 5.259 0 014.2-5.144z" fill="#fff"/><path d="M18.9 33.6c6.369 0 11.55-5.181 11.55-11.55 0-6.369-5.181-11.55-11.55-11.55v2.1c5.21 0 9.45 4.239 9.45 9.45 0 5.211-4.24 9.45-9.45 9.45-5.21 0-9.45-4.239-9.45-9.45h-2.1c0 6.369 5.181 11.55 11.55 11.55zm35.7-2.1v-2.1h-2.1V12.6c0-.58-.47-1.05-1.05-1.05h-4.2c-.58 0-1.05.47-1.05 1.05v7.35h-2.1v-2.1c0-.58-.47-1.05-1.05-1.05h-4.2c-.58 0-1.05.47-1.05 1.05v5.25h-3.15c-.58 0-1.05.47-1.05 1.05v5.25h-2.1v2.1h23.1zm-6.3-17.85h2.1V29.4h-2.1V13.65zm-2.1 8.4v7.35h-2.1v-7.35h2.1zm-6.3-3.15H42v10.5h-2.1V18.9zm-4.2 6.3h2.1v4.2h-2.1v-4.2zm-24.15 21h2.1v2.1h-2.1v-2.1zm-4.2 0h2.1v2.1h-2.1v-2.1z" fill="#fff"/></svg>