<svg width="306" height="212" fill="none" xmlns="http://www.w3.org/2000/svg"><path opacity=".1" fill-rule="evenodd" clip-rule="evenodd" d="M51.43 165.032v23.484h23.492V212h23.496v-23.484h23.497v-23.484H98.418v-23.49H74.922v23.49H51.431zm227.677-62.175H265.66v13.445h13.447v13.447h13.447v-13.447H306v-13.445h-13.446V89.421h-13.447v13.436zM-43 212h35.368v-35.314h35.318V141.32H-7.632V106H-43v106zm35.368-106h35.318V70.635h35.368V106h35.364v35.32h35.328V106h35.363V70.635h23.498v23.488h23.496V70.635H239.6V47.15h-23.497V23.665h-23.496V47.15h-23.498v23.485h-35.363V35.314H98.418v35.321H63.054V35.314H27.686V0H-7.632v35.314H-43v35.321h35.368V106zm223.735 6.049v18.505h-18.511v18.5h18.511v18.5h18.512v-18.5h18.507v-18.5h-18.507v-18.505h-18.512z" fill="#fff"/></svg>