<svg width="707" height="430" fill="none" xmlns="http://www.w3.org/2000/svg"><path opacity=".1" fill-rule="evenodd" clip-rule="evenodd" d="M515.703 95.266V47.632h-47.588V0h-47.597v47.632h-47.599v47.634h47.599v47.643h47.597V95.266h47.588zM54.48 221.374h27.242v-27.27H54.48v-27.273H27.24v27.273L0 194.103v27.271h27.24v27.254h27.24v-27.254zM707 0h-71.648v71.63h-71.547v71.731h71.547V215H707V0zm-71.647 215h-71.547v71.732h-71.65V215h-71.638v-71.64H348.95v71.639h-71.638v71.732H229.71v-47.642h-47.598v47.642h-47.599v47.635h47.599V382h47.598v-47.634h47.602v-47.635h71.638v71.642h71.568v-71.642h71.638v71.642h71.65V430h71.547v-71.627H707l.001-71.642h-71.648v-71.732zm-453.241-12.268v-37.535h37.5v-37.522h-37.5V90.149h-37.501v37.525h-37.492v37.522h37.492v37.535h37.501z" fill="#fff"/></svg>