<svg width="25" height="20" fill="none" xmlns="http://www.w3.org/2000/svg"><path d="M22.768 20c.562 0 1.049-.189 1.462-.562l-7.082-7.212c-.17.124-.335.244-.49.36-.53.397-.96.707-1.291.93-.33.222-.77.45-1.319.681-.549.232-1.06.348-1.534.348h-.028c-.475 0-.986-.116-1.535-.348-.549-.232-.988-.459-1.318-.682a32.16 32.16 0 01-1.29-.93c-.148-.11-.312-.231-.49-.36L.77 19.437c.414.373.901.562 1.463.562h20.536zM1.41 7.685c-.53-.36-1-.772-1.41-1.236V17.42l6.243-6.356a483.571 483.571 0 00-4.834-3.38zm22.195 0c-1.9 1.31-3.515 2.437-4.845 3.382L25 17.421V6.45c-.4.455-.865.866-1.395 1.236z" fill="#FF9200"/><path d="M22.768 0H2.232C1.516 0 .965.246.58.738.193 1.231 0 1.847 0 2.585c0 .597.256 1.243.767 1.94.512.695 1.056 1.242 1.633 1.64.316.227 1.27.902 2.86 2.024a924.323 924.323 0 013.655 2.592l.208.151.385.282c.302.223.553.403.753.54.2.138.442.292.726.462.283.17.55.298.802.384.251.085.484.127.697.127h.028c.214 0 .447-.042.698-.127a4.25 4.25 0 00.802-.384 14.8 14.8 0 00.726-.462c.2-.137.45-.317.753-.54a95.58 95.58 0 01.593-.433l1.412-.999 5.117-3.617a6.7 6.7 0 001.702-1.747c.455-.682.683-1.397.683-2.145a2.2 2.2 0 00-.663-1.606C23.895.223 23.372 0 22.767 0z" fill="#FF9200"/></svg>