<svg width="23" height="27" fill="none" xmlns="http://www.w3.org/2000/svg"><path d="M11.5 9.085c-1.41 0-2.557 1.166-2.557 2.598 0 1.433 1.147 2.598 2.557 2.598s2.557-1.165 2.557-2.598c0-1.432-1.147-2.598-2.557-2.598z" fill="#FF9200"/><path d="M19.632 3.422C17.46 1.215 14.572 0 11.5 0S5.54 1.215 3.368 3.422A11.701 11.701 0 000 11.683c0 3.12 1.196 6.055 3.368 8.262l6.11 6.207A2.817 2.817 0 0011.5 27c.765 0 1.483-.301 2.022-.848l6.11-6.207A11.7 11.7 0 0023 11.683a11.7 11.7 0 00-3.368-8.261zM11.5 15.863c-2.269 0-4.115-1.875-4.115-4.18 0-2.305 1.846-4.18 4.115-4.18s4.114 1.875 4.114 4.18c0 2.305-1.845 4.18-4.114 4.18z" fill="#FF9200"/></svg>