<svg width="51" height="24" fill="none" xmlns="http://www.w3.org/2000/svg"><rect width="51" height="24" rx="6" fill="#1678AC"/><path d="M16.155 7.2c.942 0 1.736.317 2.38.952.644.635.966 1.414.966 2.338 0 .924-.322 1.703-.966 2.338-.644.635-1.438.952-2.38.952h-1.722V17H12.5V7.2h3.654zm0 4.774c.41 0 .751-.14 1.022-.42a1.5 1.5 0 00.406-1.064c0-.43-.135-.784-.406-1.064a1.36 1.36 0 00-1.022-.42h-1.722v2.968h1.722zM24.65 7.2c1.344 0 2.464.471 3.36 1.414.905.943 1.358 2.105 1.358 3.486 0 1.381-.453 2.543-1.358 3.486-.896.943-2.016 1.414-3.36 1.414h-3.892V7.2h3.892zm0 7.952c.849 0 1.54-.28 2.072-.84.532-.57.798-1.307.798-2.212 0-.905-.266-1.638-.798-2.198-.532-.57-1.223-.854-2.072-.854h-1.96v6.104h1.96zm11.94-6.104h-3.92v2.324h3.808v1.848H32.67V17h-1.93V7.2h5.852v1.848z" fill="#fff"/></svg>