<svg width="23" height="23" fill="none" xmlns="http://www.w3.org/2000/svg"><path d="M11.5 0C5.15 0 0 5.15 0 11.5S5.15 23 11.5 23 23 17.85 23 11.5 17.85 0 11.5 0zm5.75 17.969c-6.738 0-12.219-5.481-12.219-12.219a.72.72 0 01.719-.719h2.654c.396 0 .718.322.718.719 0 1.242.27 2.425.804 3.515a.71.71 0 01.033.55.715.715 0 01-.367.413l-1.072.517a10.1 10.1 0 003.733 3.734l.518-1.071a.72.72 0 01.963-.334 7.94 7.94 0 003.515.804c.396 0 .718.322.718.718v2.654h.002a.72.72 0 01-.719.719z" fill="#FF9200"/></svg>