<svg width="48" height="48" fill="none" xmlns="http://www.w3.org/2000/svg"><path d="M24 48c13.255 0 24-10.745 24-24S37.255 0 24 0 0 10.745 0 24s10.745 24 24 24z" fill="#7AA5DA"/><path d="M35.974 12.518a1.293 1.293 0 011.735 1.469l-4.29 20.51a1.351 1.351 0 01-2.123.813l-6.477-4.754-3.302 3.37c-.58.593-1.58.352-1.83-.437l-2.382-7.562-6.385-1.886c-.84-.247-.887-1.414-.075-1.733l25.129-9.79zm-3.15 4.55c.28-.247-.046-.683-.362-.486L18.678 25.13a.626.626 0 00-.268.72l1.88 8.253c.036.126.217.108.233-.023l.42-6.29a.622.622 0 01.208-.4l11.672-10.321z" fill="#fff"/><path d="M32.462 16.582c.316-.197.641.24.362.487l-11.672 10.32a.622.622 0 00-.207.401l-.42 6.29c-.016.131-.197.149-.235.023l-1.88-8.254a.626.626 0 01.269-.719l13.783-8.548z" fill="#9EC2E5"/><path d="M20.358 34.189a1.078 1.078 0 01-.67-.7l-2.383-7.562-6.385-1.886c-.839-.248-.887-1.415-.075-1.733l25.128-9.79a1.29 1.29 0 011.562.51 1.353 1.353 0 00-.205-.244L20.282 26.701v.61l-.094-.069.094 3.837v3.077c.024.012.05.021.076.03v.003z" fill="#fff"/><path d="M37.737 13.642c.005.11-.004.227-.028.345l-4.29 20.51a1.351 1.351 0 01-2.123.813l-6.477-4.755-4.537-3.245v-.609L37.33 12.784a1.346 1.346 0 01.24.3l.03.056a.955.955 0 01.054.12c.006.017.014.036.02.058a1.291 1.291 0 01.064.324z" fill="#D1D1D1"/><path d="M24.819 30.555l-3.302 3.372a1.296 1.296 0 01-.175.145l-.001.002a1.14 1.14 0 01-.19.102c-.035.013-.067.026-.101.034a1.096 1.096 0 01-.537.022 2.515 2.515 0 01-.155-.047l-.076-3.106V27.31l4.537 3.245z" fill="#D1D1D1"/><path d="M21.431 34.006a1.166 1.166 0 01-.089.068v-.002c.031-.02.06-.042.09-.066zm-.089.066v.002s0-.002-.001 0l.001-.002zm-.192.103zm-.527.073z" fill="#DADDE0"/><path d="M20.738 34.257zm-.115-.009a.036.036 0 00.02.004.642.642 0 01-.02-.004z" fill="#fff"/><path d="M20.623 34.248zm-.231-.05c.036.012.071.021.107.031l-.044-.01a.055.055 0 01-.018-.006.245.245 0 01-.045-.015z" fill="#DADDE0"/><path d="M20.455 34.22c.015.002.03.006.044.009a.208.208 0 01-.044-.01zm-.063-.022c.015.007.03.012.045.015a.428.428 0 01-.072-.023c.01.003.017.007.027.008z" fill="#fff"/><path d="M20.392 34.198c-.01-.001-.018-.005-.027-.008-.002.002-.005 0-.007-.001v-.004c.011.007.023.01.034.013z" fill="#DADDE0"/><path d="M20.282 31.08l.076 3.105a.614.614 0 01-.076-.029V31.08z" fill="#D1D1D1"/><path d="M20.282 27.31v3.77l-.094-3.838.094.068z" fill="#DADDE0"/><path d="M32.824 17.069l-11.672 10.32a.623.623 0 00-.207.401l-.42 6.29c-.016.132-.197.15-.236.023l-1.878-8.254a.626.626 0 01.268-.719l13.783-8.548c.316-.197.641.24.362.487z" fill="#ADBCC9"/></svg>