<svg width="48" height="48" fill="none" xmlns="http://www.w3.org/2000/svg"><path d="M24 48c13.255 0 24-10.745 24-24S37.255 0 24 0 0 10.745 0 24s10.745 24 24 24z" fill="#6F3FAA"/><path d="M36.696 16.868l-.008-.032c-.64-2.592-3.532-5.374-6.187-5.953l-.03-.006a34.384 34.384 0 00-12.942 0l-.03.006c-2.655.579-5.546 3.36-6.188 5.953l-.007.032a25.33 25.33 0 000 10.912l.007.032c.615 2.482 3.29 5.136 5.847 5.866v2.893c0 1.048 1.276 1.562 2.002.806l2.932-3.047a34.462 34.462 0 008.379-.559l.03-.006c2.655-.579 5.546-3.36 6.187-5.953l.008-.032c.793-3.62.793-7.292 0-10.912zm-2.32 10.387c-.428 1.692-2.623 3.794-4.367 4.183-2.284.434-4.585.62-6.884.556a.163.163 0 00-.122.05l-2.14 2.197-2.278 2.337a.267.267 0 01-.459-.184V31.6a.165.165 0 00-.134-.162h-.001c-1.744-.389-3.939-2.491-4.368-4.183a22.985 22.985 0 010-9.862c.43-1.691 2.624-3.794 4.368-4.183a32.024 32.024 0 0112.018 0c1.745.389 3.939 2.492 4.367 4.183a22.97 22.97 0 010 9.862z" fill="#fff"/><path d="M27.794 29.468c-.268-.081-.524-.136-.761-.234-2.46-1.02-4.722-2.337-6.515-4.354-1.02-1.148-1.817-2.443-2.492-3.814-.32-.65-.59-1.325-.864-1.997-.25-.612.119-1.244.507-1.705a4.009 4.009 0 011.342-1.008c.397-.19.788-.08 1.078.255.626.727 1.2 1.49 1.666 2.333.287.518.208 1.152-.31 1.504-.127.086-.242.187-.36.284-.103.084-.2.17-.27.285a.782.782 0 00-.053.686c.64 1.76 1.72 3.127 3.49 3.864.283.118.568.255.894.217.547-.064.724-.664 1.107-.977.374-.306.852-.31 1.256-.055.403.256.794.53 1.183.807.381.271.761.537 1.113.847.338.298.455.69.264 1.094-.348.74-.856 1.356-1.588 1.75-.207.11-.454.146-.687.218-.268-.081.233-.072 0 0zm-3.787-13.959c3.216.09 5.858 2.225 6.424 5.405.097.541.131 1.095.174 1.645.018.232-.113.451-.363.454-.257.004-.373-.212-.39-.443-.033-.458-.056-.918-.12-1.372-.332-2.396-2.243-4.378-4.628-4.803-.359-.064-.726-.081-1.09-.12-.23-.023-.53-.037-.581-.323-.043-.24.16-.43.387-.443.062-.003.124 0 .187 0 3.216.09-.063 0 0 0z" fill="#fff"/><path d="M28.895 21.846c-.005.04-.008.134-.032.223-.085.323-.575.363-.688.038a.969.969 0 01-.038-.311c-.001-.681-.15-1.362-.493-1.955a3.638 3.638 0 00-1.525-1.431 4.383 4.383 0 00-1.216-.373c-.183-.03-.369-.049-.553-.075-.223-.03-.342-.173-.332-.393.01-.206.16-.354.385-.341.739.041 1.452.201 2.108.549 1.334.706 2.097 1.822 2.32 3.311.01.068.025.135.03.203.013.167.021.334.034.555-.005.04-.013-.221 0 0z" fill="#fff"/><path d="M26.894 21.768c-.269.005-.413-.145-.44-.391-.02-.172-.035-.346-.076-.514a1.445 1.445 0 00-.534-.837 1.395 1.395 0 00-.434-.21c-.198-.057-.403-.041-.6-.09-.213-.052-.332-.225-.298-.426a.386.386 0 01.408-.31c1.247.09 2.138.735 2.265 2.203.01.103.02.213-.003.312-.04.17-.165.254-.288.263-.269.004.123-.009 0 0z" fill="#fff"/><path d="M36.696 16.868l-.008-.032c-.359-1.453-1.426-2.966-2.761-4.116l-1.806 1.6c1.074.855 1.994 2.04 2.255 3.073a22.97 22.97 0 010 9.862c-.428 1.692-2.623 3.794-4.367 4.183-2.284.434-4.585.62-6.884.556a.163.163 0 00-.122.05l-2.14 2.197-2.278 2.337a.267.267 0 01-.459-.184V31.6a.165.165 0 00-.134-.162h-.001c-.991-.221-2.127-.996-3.003-1.933l-1.784 1.58c1.114 1.212 2.552 2.192 3.954 2.593v2.893c0 1.048 1.276 1.562 2.002.806l2.932-3.047a34.462 34.462 0 008.379-.559l.03-.006c2.655-.579 5.546-3.36 6.187-5.953l.008-.032c.793-3.62.793-7.292 0-10.912z" fill="#fff"/><path d="M27.794 29.468c.233-.072-.268-.081 0 0z" fill="#fff"/><path d="M29.805 26.406c-.352-.31-.732-.575-1.113-.847a27.09 27.09 0 00-1.183-.807c-.404-.255-.882-.25-1.256.055-.383.313-.56.913-1.107.977-.326.038-.61-.1-.894-.217a5.785 5.785 0 01-2.54-2.021l-1.328 1.176c.045.052.088.106.134.158 1.793 2.017 4.056 3.334 6.515 4.354.237.098.493.153.761.234.233-.072-.268-.081 0 0 .233-.072.48-.108.687-.218.732-.394 1.24-1.01 1.588-1.75.19-.405.074-.796-.264-1.094zm-5.79-10.896l-.008-.001h.008z" fill="#fff"/><path d="M24.015 15.51l-.008-.001c3.09.086.186.007.008 0zm4.605 1.912l-.566.502a5.68 5.68 0 011.679 3.274c.063.454.086.914.119 1.372.017.23.133.447.39.444.25-.004.381-.223.363-.455-.043-.55-.077-1.104-.174-1.645a6.458 6.458 0 00-1.81-3.492zm.21 3.666c-.162-1.085-.612-1.971-1.36-2.646l-.565.5c.292.26.545.564.74.9.343.592.49 1.273.492 1.954a.97.97 0 00.038.31c.113.326.603.286.688-.037.024-.089.027-.183.032-.223-.013-.221-.005.04 0 0-.013-.221-.02-.388-.033-.555-.006-.068-.022-.135-.032-.203z" fill="#fff"/><path d="M28.895 21.846c-.013-.221-.005.04 0 0zm-2.001-.078c.005 0 .009-.003.013-.003h-.047c.012 0 .022.003.034.003z" fill="#fff"/><path d="M26.86 21.765c.012 0 .022.003.034.003a.462.462 0 01-.034-.003zm.034.003c.005 0 .009-.003.013-.003.016 0 .019 0-.013.003z" fill="#fff"/><path d="M26.326 19.456l-.574.509c.032.019.062.04.092.061.278.202.453.507.534.837.04.168.056.342.075.514.027.236.16.38.407.389l.047-.001a.319.319 0 00.275-.26c.023-.1.012-.209.003-.312-.071-.821-.381-1.385-.859-1.737z" fill="#fff"/></svg>