<svg width="48" height="48" fill="none" xmlns="http://www.w3.org/2000/svg"><path d="M24 48c13.255 0 24-10.745 24-24S37.255 0 24 0 0 10.745 0 24s10.745 24 24 24z" fill="#75B73B"/><path d="M23.328 10.167c-7.315.348-13.087 6.44-13.065 13.763.006 2.23.545 4.336 1.495 6.197l-1.459 7.08a.535.535 0 00.647.627l6.938-1.643a13.67 13.67 0 005.902 1.433c7.477.114 13.711-5.822 13.944-13.297.25-8.011-6.362-14.543-14.401-14.16zm8.278 21.327A10.686 10.686 0 0124 34.644c-1.682 0-3.293-.377-4.788-1.121l-.965-.482-4.254 1.008.896-4.346-.476-.932a10.636 10.636 0 01-1.17-4.883c0-2.873 1.12-5.574 3.15-7.606A10.775 10.775 0 0124 13.132a10.69 10.69 0 017.606 3.15 10.686 10.686 0 013.15 7.606c0 2.847-1.137 5.592-3.15 7.606z" fill="#fff"/><path d="M30.667 26.867l-2.661-.764c-.35-.1-.727 0-.981.259l-.651.663a.969.969 0 01-1.054.222c-1.259-.51-3.907-2.864-4.582-4.041a.969.969 0 01.076-1.075l.568-.734a.992.992 0 00.122-1.008l-1.12-2.532a.992.992 0 00-1.549-.355c-.742.629-1.623 1.583-1.73 2.64-.19 1.865.61 4.215 3.634 7.037 3.492 3.26 6.29 3.69 8.111 3.25 1.033-.25 1.859-1.253 2.38-2.075a.993.993 0 00-.563-1.487z" fill="#fff"/><path d="M33.375 13.848l-2.083 2.135a10.686 10.686 0 013.465 7.905 10.78 10.78 0 01-3.15 7.606A10.686 10.686 0 0124 34.644c-1.682 0-3.293-.377-4.787-1.121l-.966-.482-4.254 1.008.088-.427-3.766 3.86c.083.25.347.42.631.352l6.938-1.643c1.782.888 3.784 1.4 5.902 1.433 7.477.114 13.711-5.823 13.944-13.297a13.703 13.703 0 00-4.355-10.48z" fill="#fff"/><path d="M30.667 26.867l-2.661-.764c-.35-.1-.727 0-.981.259l-.651.663a.969.969 0 01-1.054.222c-.727-.294-1.917-1.204-2.924-2.147l-1.85 1.896c.064.06.127.122.193.183 3.493 3.26 6.29 3.69 8.111 3.25 1.033-.25 1.859-1.253 2.38-2.075a.993.993 0 00-.563-1.487z" fill="#fff"/></svg>