<svg width="175" height="109" fill="none" xmlns="http://www.w3.org/2000/svg"><path opacity=".1" fill-rule="evenodd" clip-rule="evenodd" d="M130.567 24.149V12.074h-12.049V0h-12.05v12.074H94.416V24.15h12.052v12.077h12.05V24.149h12.049zM13.793 56.116h6.897v-6.913h-6.897V42.29H6.897v6.913H0v6.913h6.897v6.908h6.896v-6.908zM179 0h-18.14v18.157h-18.114V36.34h18.114V54.5H179V0zm-18.14 54.5h-18.114v18.183h-18.141V54.5h-18.137V36.34h-18.12V54.5H70.21v18.183H58.158V60.606h-12.05v12.077H34.056v12.075h12.052v12.075h12.05V84.758H70.21V72.683h18.138v18.16h18.12v-18.16h18.137v18.16h18.141V109h18.114V90.844H179V72.683h-18.14V54.5zM46.107 51.39v-9.515h9.495v-9.511h-9.494v-9.512h-9.495v9.512H27.12v9.511h9.492v9.515h9.495z" fill="#fff"/></svg>