<svg width="41" height="22" fill="none" xmlns="http://www.w3.org/2000/svg"><path fill-rule="evenodd" clip-rule="evenodd" d="M13.688 17.126v2.437h2.491V22h2.49v-2.437h2.492v-2.437H18.67v-2.438h-2.491v2.438h-2.49zm24.138-6.452H36.4v1.395h1.426v1.395h1.426V12.07h1.425v-1.395h-1.425V9.28h-1.426v1.394zM3.677 22h3.75v-3.665h3.744v-3.67H7.427V11h-3.75v3.665H0v3.668h3.677V22zm3.75-11h3.744V7.33h3.75V11h3.749v3.665h3.745V11h3.75V7.33h2.49v2.438h2.491V7.33h2.492V4.893h-2.491V2.456h-2.491v2.437h-2.492V7.33h-3.749V3.665H18.67V7.33h-3.75V3.665h-3.749V0H7.427v3.665h-3.75V7.33h3.75V11zm23.72.628v1.92h-1.963v1.92h1.962v1.92h1.963v-1.92h1.962v-1.92H33.11v-1.92h-1.963z" fill="#FF9200"/><path fill-rule="evenodd" clip-rule="evenodd" d="M13.688 17.126v2.437h2.491V22h2.49v-2.437h2.492v-2.437H18.67v-2.438h-2.491v2.438h-2.49zm24.138-6.452H36.4v1.395h1.426v1.395h1.426V12.07h1.425v-1.395h-1.425V9.28h-1.426v1.394zM3.677 22h3.75v-3.665h3.744v-3.67H7.427V11h-3.75v3.665H0v3.668h3.677V22zm3.75-11h3.744V7.33h3.75V11h3.749v3.665h3.745V11h3.75V7.33h2.49v2.438h2.491V7.33h2.492V4.893h-2.491V2.456h-2.491v2.437h-2.492V7.33h-3.749V3.665H18.67V7.33h-3.75V3.665h-3.749V0H7.427v3.665h-3.75V7.33h3.75V11zm23.72.628v1.92h-1.963v1.92h1.962v1.92h1.963v-1.92h1.962v-1.92H33.11v-1.92h-1.963z" fill="url(#paint0_linear)"/><defs><linearGradient id="paint0_linear" x1="6.062" y1="-2.152" x2="47.735" y2="8.961" gradientUnits="userSpaceOnUse"><stop stop-color="#FC0"/><stop offset="1" stop-color="#FF9200"/></linearGradient></defs></svg>