<svg width="22" height="22" fill="none" xmlns="http://www.w3.org/2000/svg"><path d="M11 0C4.925 0 0 4.925 0 11s4.925 11 11 11 11-4.925 11-11S17.075 0 11 0zm-.024 18.222a1.477 1.477 0 01-1.475-1.476c0-.813.662-1.475 1.475-1.475.814 0 1.476.662 1.476 1.475 0 .814-.662 1.476-1.476 1.476zm2.312-7.244c-.638.597-1.06.99-1.06 1.945v.706a.324.324 0 01-.323.324H10.15a.324.324 0 01-.323-.324v-.706c0-1.96 1.018-2.917 1.762-3.615.633-.594 1.052-.986 1.052-1.927 0-.297 0-1.2-1.613-1.2-1.512 0-1.573.833-1.599 1.189l-.052.723a.323.323 0 01-.355.299l-1.75-.175a.324.324 0 01-.291-.347l.052-.686c.156-2.07 1.73-3.406 4.012-3.406 1.193 0 2.197.335 2.903.969.716.642 1.095 1.56 1.095 2.651 0 1.937-1.015 2.886-1.755 3.58z" fill="#2BBEEC"/></svg>